<svg width="128" height="128" viewBox="0 0 128 128" fill="none" xmlns="http://www.w3.org/2000/svg">
<path d="M35.5599 40.7299C34.9899 46.8099 34.5899 57.5699 38.1799 62.1499C38.1799 62.1499 36.4899 50.3299 51.6399 35.4999C57.7399 29.5299 59.1499 21.4099 57.0199 15.3199C55.8099 11.8699 53.5999 9.0199 51.6799 7.0299C50.5599 5.8599 51.4199 3.9299 53.0499 3.9999C62.9099 4.4399 78.8899 7.1799 85.6799 24.2199C88.6599 31.6999 88.8799 39.4299 87.4599 47.2899C86.5599 52.3099 83.3599 63.4699 90.6599 64.8399C95.8699 65.8199 98.3899 61.6799 99.5199 58.6999C99.9899 57.4599 101.62 57.1499 102.5 58.1399C111.3 68.1499 112.05 79.9399 110.23 90.0899C106.71 109.71 86.8399 123.99 67.0999 123.99C42.4399 123.99 22.8099 109.88 17.7199 84.3399C15.6699 74.0299 16.7099 53.6299 32.6099 39.2299C33.7899 38.1499 35.7199 39.1099 35.5599 40.7299Z" fill="url(#paint0_radial_33_29)"/>
<path d="M76.11 77.4201C67.02 65.7201 71.09 52.3701 73.32 47.0501C73.62 46.3501 72.82 45.6901 72.19 46.1201C68.28 48.7801 60.27 55.0401 56.54 63.8501C51.49 75.7601 51.85 81.5901 54.84 88.7101C56.64 93.0001 54.55 93.9101 53.5 94.0701C52.48 94.2301 51.54 93.5501 50.79 92.8401C48.6323 90.7687 47.0948 88.1369 46.35 85.2401C46.19 84.6201 45.38 84.4501 45.01 84.9601C42.21 88.8301 40.76 95.0401 40.69 99.4301C40.47 113 51.6799 124 65.24 124C82.33 124 94.78 105.1 84.96 89.3001C82.11 84.7001 79.43 81.6901 76.11 77.4201Z" fill="url(#paint1_radial_33_29)"/>
<defs>
<radialGradient id="paint0_radial_33_29" cx="0" cy="0" r="1" gradientUnits="userSpaceOnUse" gradientTransform="translate(62.2157 124.301) rotate(-179.751) scale(70.5877 115.82)">
<stop offset="0.314" stop-color="#FF9800"/>
<stop offset="0.662" stop-color="#FF6D00"/>
<stop offset="0.972" stop-color="#F44336"/>
</radialGradient>
<radialGradient id="paint1_radial_33_29" cx="0" cy="0" r="1" gradientUnits="userSpaceOnUse" gradientTransform="translate(66.1799 54.0585) rotate(90.5787) scale(73.8564 55.5825)">
<stop offset="0.214" stop-color="#FFF176"/>
<stop offset="0.328" stop-color="#FFF27D"/>
<stop offset="0.487" stop-color="#FFF48F"/>
<stop offset="0.672" stop-color="#FFF7AD"/>
<stop offset="0.793" stop-color="#FFF9C4"/>
<stop offset="0.822" stop-color="#FFF8BD" stop-opacity="0.804"/>
<stop offset="0.863" stop-color="#FFF6AB" stop-opacity="0.529"/>
<stop offset="0.91" stop-color="#FFF38D" stop-opacity="0.209"/>
<stop offset="0.941" stop-color="#FFF176" stop-opacity="0"/>
</radialGradient>
</defs>
</svg>
