<svg width="309" height="309" viewBox="0 0 309 309" fill="none" xmlns="http://www.w3.org/2000/svg">
<path d="M111.71 191.351C111.71 183.771 111.88 176.191 111.63 168.631C111.51 165.031 112.37 163.511 116.26 163.711C119.58 163.881 121.78 163.841 121.72 168.391C121.46 186.381 121.66 204.371 121.53 222.361C121.52 223.821 120.32 225.271 119.67 226.731C118.28 225.801 116.33 225.201 115.59 223.901C110.8 215.561 106.28 207.061 101.65 198.631C101.07 197.571 100.35 196.571 98.7404 195.821V226.701C96.0104 226.701 93.7204 227.021 91.5804 226.571C90.4504 226.331 88.7504 224.761 88.7404 223.771C88.5704 204.781 88.5904 185.791 88.7004 166.811C88.7004 165.821 90.1704 163.911 90.4304 164.001C92.2804 164.641 94.7204 165.211 95.6304 166.661C99.8604 173.401 103.66 180.421 107.62 187.331C108.48 188.841 109.36 190.351 110.24 191.851C110.73 191.691 111.22 191.521 111.71 191.361V191.351Z" fill="white"/>
<path d="M171.32 146.88C169.75 145.72 167.61 144.9 166.7 143.36C162.09 135.49 157.81 127.43 153.4 119.44C152.59 117.96 151.72 116.52 150.87 115.06L149.69 115.46V145.91H139.84V84.4304C143.41 82.9204 145.65 83.9104 147.48 87.3204C151.32 94.4804 155.48 101.47 159.54 108.51C160.15 109.57 160.94 110.53 162.49 112.76V84.2604H172.32V145.4C171.99 145.9 171.65 146.39 171.32 146.89V146.88Z" fill="white"/>
<path d="M161.311 163.94H171.061C171.351 164.29 171.741 164.54 171.741 164.8C171.691 180.77 172.191 196.77 171.351 212.7C170.691 225.1 161.371 230.55 149.451 226.82C145.101 225.46 142.641 222.26 141.311 218.09C140.751 216.35 140.151 214.53 140.141 212.74C140.051 196.65 140.091 180.55 140.091 164.13H150.431C150.431 165.99 150.431 167.75 150.431 169.52C150.431 181.51 150.371 193.5 150.491 205.48C150.521 208.28 150.701 211.23 151.611 213.82C152.151 215.38 154.291 217.43 155.631 217.38C157.301 217.31 159.331 215.6 160.391 214.03C161.301 212.67 161.291 210.54 161.301 208.74C161.361 196.25 161.321 183.77 161.311 171.28C161.311 168.99 161.311 166.69 161.311 163.93V163.94Z" fill="white"/>
<path d="M97.3613 114.87C98.7913 107.59 99.6813 100.48 101.661 93.7005C103.671 86.8305 109.291 83.0405 115.721 83.1305C122.581 83.2205 127.481 86.5605 129.781 93.0005C135.001 107.59 135.001 122.31 129.811 136.9C127.531 143.31 122.751 146.76 115.771 146.74C108.761 146.73 103.781 143.14 101.851 136.74C99.7113 129.67 98.8113 122.23 97.3613 114.87ZM123.011 114.93C122.211 109.52 121.821 104.36 120.541 99.4205C120.021 97.4205 117.581 95.9105 116.011 94.1805C114.271 95.9805 111.481 97.5205 110.971 99.6105C108.431 110.06 108.491 120.7 111.031 131.16C111.511 133.13 114.091 134.58 115.701 136.27C117.341 134.66 119.971 133.29 120.441 131.38C121.771 125.95 122.231 120.3 123.001 114.92L123.011 114.93Z" fill="white"/>
<path d="M237.98 163.81V174.15C234.31 174.15 230.73 174.31 227.16 174.1C224.07 173.92 222.97 175.16 223.19 178.16C223.44 181.63 222.21 186.16 223.97 188.28C225.57 190.21 230.3 189.54 233.99 190.07V199.28C233.54 199.47 233.11 199.77 232.65 199.83C229.61 200.23 224.23 199.96 223.94 201.06C222.84 205.27 223.21 209.92 223.44 214.39C223.48 215.11 225.52 216.22 226.69 216.3C230.3 216.55 233.94 216.39 238 216.39V226.68C230.22 226.68 222.62 226.79 215.03 226.55C214.03 226.52 212.25 224.71 212.24 223.71C212.08 204.73 212.08 185.75 212.25 166.77C212.25 165.77 214.05 163.97 215.06 163.94C222.5 163.7 229.95 163.81 237.98 163.81Z" fill="white"/>
<path d="M176.521 224.56C177.931 220.69 178.931 217.94 179.981 215.07C182.501 215.65 184.751 216.66 186.941 216.56C189.541 216.43 193.261 216.12 194.351 214.46C195.471 212.75 194.681 208.99 193.531 206.75C191.741 203.25 188.571 200.47 186.671 197.01C183.601 191.42 179.911 185.77 178.611 179.69C176.591 170.24 182.871 163.44 192.541 163.25C196.071 163.18 199.621 164.17 203.841 164.78C202.641 168.6 201.671 171.66 201.171 173.25C196.591 174.37 191.741 174.1 190.041 176.29C187.231 179.9 191.011 183.61 193.281 186.84C196.431 191.32 199.751 195.69 202.721 200.28C204.051 202.33 205.021 204.72 205.641 207.09C208.711 218.92 202.641 226.98 190.431 226.82C185.961 226.76 181.501 225.41 176.531 224.56H176.521Z" fill="white"/>
<path d="M214.96 134.8C217.91 135.53 220.3 136.6 222.67 136.56C224.93 136.53 227.88 135.96 229.2 134.45C230.27 133.22 230.14 129.84 229.2 128.16C226.71 123.7 223.24 119.79 220.65 115.38C217.92 110.72 214.96 105.94 213.54 100.82C211.1 92.0096 216.25 84.9396 225.2 83.3896C226.5 83.1696 227.84 83.0996 229.16 83.1396C239.26 83.4296 240.12 84.9896 235.19 94.4396C234.53 94.3596 233.74 94.0896 233 94.2096C230.25 94.6496 226.14 94.3696 225.16 95.9696C224.06 97.7696 225.1 101.74 226.46 104.01C229.6 109.25 233.65 113.94 237.04 119.05C238.67 121.5 240.07 124.27 240.82 127.1C243.82 138.37 237.88 146.41 226.21 146.5C221.41 146.54 216.6 145.26 211.4 144.53C212.85 140.57 213.86 137.81 214.95 134.81L214.96 134.8Z" fill="white"/>
<path d="M91.3306 113.351V122.911C87.4306 123.101 83.7305 123.291 79.5705 123.501V146.041H69.0605V84.2812H93.8805C94.0705 84.5712 94.3705 84.8313 94.3905 85.1213C94.8505 91.0746 92.1039 94.0513 86.1506 94.0513C79.6106 94.0513 79.5705 94.0513 79.6305 100.431C79.6705 104.241 78.4806 109.201 80.4006 111.501C82.1506 113.601 87.3405 112.821 91.3205 113.351H91.3306Z" fill="white"/>
<path d="M199.391 146.09H188.321C188.321 141.32 188.321 136.71 188.321 132.1C188.321 121.27 188.121 110.43 188.421 99.6105C188.541 95.3105 187.511 93.3105 182.961 93.9805C181.551 94.1905 180.051 93.8405 178.301 93.7305V84.2305H209.441V93.3005C208.981 93.5605 208.711 93.8405 208.421 93.8605C202.401 94.2871 199.391 97.5071 199.391 103.52C199.391 117.49 199.391 131.46 199.391 146.08V146.09Z" fill="white"/>
<path d="M69.2012 164.02H79.3612V226.43H69.2012V164.02Z" fill="white"/>
</svg>
