<svg width="309" height="309" viewBox="0 0 309 309" fill="none" xmlns="http://www.w3.org/2000/svg">
<g clip-path="url(#clip0_83_1087)">
<path d="M132.571 157.03C132.571 151.96 132.801 146.881 132.491 141.841C132.271 138.211 133.671 137.391 137.031 137.471C140.101 137.551 141.921 137.771 141.801 141.651C141.531 150.6 141.801 159.56 141.641 168.51C141.611 170.18 142.991 173.201 139.861 173.261C136.861 173.321 133.141 175.16 130.911 171.25C127.571 165.4 124.211 159.56 119.781 153.92C119.781 159.11 119.531 164.31 119.861 169.48C120.121 173.57 117.871 173.471 114.971 173.511C112.041 173.551 110.451 173.16 110.551 169.55C110.811 160.6 110.551 151.64 110.711 142.691C110.741 141.001 109.361 137.921 112.241 137.811C115.361 137.691 119.281 135.631 121.651 139.821C124.951 145.661 128.311 151.47 131.651 157.29C131.961 157.2 132.261 157.12 132.571 157.03Z" fill="white"/>
<path d="M105.78 155.981C105.78 159.301 105.9 162.621 105.75 165.931C105.54 170.611 102.92 173.441 98.2898 173.661C92.3398 173.941 86.3598 173.831 80.3998 173.641C75.8498 173.491 73.2798 170.581 73.0598 166.331C72.6998 159.221 72.6998 152.081 73.0098 144.971C73.2098 140.411 76.0698 137.761 80.7398 137.421C86.5298 137.001 92.3398 136.871 98.1198 137.471C103.22 138.011 105.52 140.471 105.76 145.541C105.93 149.011 105.79 152.501 105.79 155.981C105.78 155.981 105.77 155.981 105.76 155.981H105.78ZM81.9198 155.561C81.9198 157.871 81.8798 160.191 81.9298 162.501C81.9698 164.381 82.1898 166.031 84.5698 166.601C93.8198 168.831 96.8598 166.561 96.8598 157.251C96.8598 155.431 96.8598 153.611 96.8598 151.791C96.8465 146.831 94.3998 144.351 89.5198 144.351C84.4465 144.351 81.9065 146.927 81.8998 152.081C81.8998 153.241 81.8998 154.391 81.9098 155.551L81.9198 155.561Z" fill="white"/>
<path d="M232.421 155.781C232.421 158.931 232.521 162.091 232.391 165.231C232.161 170.771 229.661 173.491 224.101 173.751C218.641 174.001 213.161 173.871 207.691 173.751C202.751 173.631 199.841 170.811 199.611 166.041C199.281 159.101 199.281 152.121 199.581 145.171C199.791 140.381 202.731 137.551 207.641 137.421C213.271 137.271 218.921 137.141 224.531 137.491C229.901 137.831 232.101 140.471 232.411 145.841C232.431 146.171 232.421 146.501 232.421 146.831C232.421 149.811 232.421 152.801 232.421 155.781ZM223.461 155.421C223.461 143.581 223.461 143.651 212.791 144.331C209.941 144.511 208.491 145.551 208.511 148.481C208.551 153.111 208.581 157.741 208.501 162.371C208.451 165.541 209.881 166.621 213.021 166.721C223.471 167.041 223.471 167.141 223.471 156.911C223.471 156.411 223.471 155.921 223.471 155.421H223.461Z" fill="white"/>
<path d="M41.8706 155.611C41.8706 150.641 41.9606 145.671 41.8306 140.701C41.7706 138.361 42.5906 137.501 44.9606 137.531C52.2506 137.641 59.5406 137.661 66.8206 137.531C69.5006 137.481 70.2406 138.591 70.2106 141.061C70.1806 143.391 69.7406 144.851 66.9406 144.751C62.8006 144.611 58.6506 144.901 54.5206 144.681C50.9806 144.501 51.0106 146.571 50.9606 149.101C50.9006 151.791 51.2906 153.651 54.6606 153.371C57.1306 153.171 59.6406 153.471 62.1106 153.301C65.0006 153.101 66.2906 153.981 66.2606 157.151C66.2306 160.291 64.6306 160.701 62.1806 160.491C61.8506 160.461 61.5206 160.491 61.1906 160.491C51.5606 160.571 51.3406 160.571 51.1006 170.051C50.9906 174.191 48.5206 173.371 46.1406 173.461C43.7006 173.551 41.5506 173.711 41.7806 170.021C42.0806 165.231 41.8506 160.421 41.8506 155.611H41.8706Z" fill="white"/>
<path d="M269.16 138.151C265.58 145.181 262.18 152.131 258.52 158.951C256.75 162.251 255.49 165.551 255.99 169.331C256.42 172.581 255.1 173.781 251.81 173.521C249.13 173.311 246.2 173.941 246.78 169.681C247.39 165.141 245.52 161.311 243.46 157.471C240.11 151.211 236.93 144.861 233.66 138.501C241.3 136.271 242.63 136.841 245.65 143.251C247.33 146.811 249.09 150.321 251.07 154.401C253.83 150.971 255 147.371 256.66 144.081C260.34 136.791 260.29 136.771 269.16 138.181V138.151Z" fill="white"/>
<path d="M161.62 137.57C165.1 137.57 168.57 137.64 172.05 137.55C174.72 137.48 176.81 137.4 176.72 141.27C176.64 144.84 174.71 145.08 172.27 144.68C166.86 143.81 165.46 146.22 165.8 151.26C166.19 157.03 165.73 162.85 165.95 168.63C166.08 172.08 165.35 173.66 161.37 173.59C157.72 173.52 156.41 172.63 156.6 168.84C156.9 162.73 156.43 156.58 156.76 150.48C157 146.06 155.81 144.04 151.06 144.62C149.42 144.82 146.73 145.83 146.25 142.78C145.78 139.84 145.69 137.1 150.21 137.49C153.99 137.82 157.82 137.56 161.63 137.56L161.62 137.57Z" fill="white"/>
<path d="M194.751 153.561C194.751 157.541 194.931 161.531 194.711 165.491C194.401 171.101 191.911 173.501 186.251 173.801C183.611 173.941 180.951 173.601 178.301 173.661C175.621 173.731 174.991 172.381 174.971 169.971C174.951 167.311 176.121 166.681 178.581 166.601C185.581 166.361 185.571 166.251 185.581 159.021C185.581 156.201 185.541 153.381 185.591 150.561C185.651 147.351 186.131 144.101 181.041 144.581C178.531 144.821 179.121 142.411 179.041 140.881C178.951 139.141 179.081 137.451 181.541 137.581C181.701 137.581 181.871 137.581 182.041 137.571C190.554 136.777 194.811 140.614 194.811 149.081C194.811 150.571 194.811 152.061 194.811 153.561C194.791 153.561 194.781 153.561 194.761 153.561H194.751Z" fill="white"/>
</g>
<defs>
<clipPath id="clip0_83_1087">
<rect width="229" height="37" fill="white" transform="translate(41 137)"/>
</clipPath>
</defs>
</svg>
