<svg width="309" height="309" viewBox="0 0 309 309" fill="none" xmlns="http://www.w3.org/2000/svg">
<path d="M209.211 185.34C209.741 184.18 209.881 182.47 211.551 182.54C213.361 182.62 213.401 184.35 213.271 185.59C212.921 188.75 214.641 189.84 217.291 190.79C220.581 191.97 223.371 194.09 225.731 196.77C228.371 199.77 227.891 202.11 224.501 203.98C219.831 206.56 214.751 208.16 209.701 209.74C206.411 210.77 205.801 212.39 207.341 215.16C208.461 217.18 209.731 219.12 210.911 221.1C211.461 222.01 213.041 222.77 212.011 223.97C211.221 224.89 209.791 224.4 208.691 224.07C205.171 223.02 202.751 220.6 200.741 217.63C199.971 216.5 199.971 213.82 197.451 215.48C195.061 217.07 197.141 218.23 198.021 219.45C198.481 220.09 198.991 220.7 200.301 222.37C194.101 221.92 188.141 218.81 184.421 225.12C184.591 225.21 185.141 225.49 185.671 225.81C188.171 227.32 190.951 229.45 190.181 232.27C189.441 234.98 186.151 232.87 184.031 233.15C181.241 233.51 178.411 233.49 175.601 233.69C173.361 233.85 171.291 234.66 169.441 232.04C167.941 229.91 165.141 231.48 162.931 231.63C160.131 231.82 156.801 233.61 156.171 228.67C156.091 228.08 154.631 227.63 153.771 227.19C141.241 220.79 138.921 210.62 145.911 198.14C154.301 183.17 156.411 167.18 150.361 150.7C148.321 145.14 148.091 145.35 143.741 148.96C133.271 157.66 121.931 164.72 107.911 165.88C95.3406 166.92 87.3806 160.3 85.6606 147.7C82.7406 126.38 90.9706 109.49 107.321 96.6602C125.871 82.0902 146.651 73.4202 171.001 76.7302C205.851 81.4702 224.471 117.85 207.781 148.87C199.921 163.48 188.141 174.68 175.311 184.87C173.921 185.98 172.571 187.14 170.051 189.22C179.601 188.71 187.181 193.07 195.591 192.07C199.561 191.6 203.561 191.73 203.971 186.08C204.091 184.48 205.371 181.35 207.411 185.35C207.261 186.25 207.101 187.75 207.821 187.78C209.051 187.83 209.361 186.53 209.211 185.34ZM216.921 197.28C217.861 197.08 218.361 196.48 218.291 195.53C218.221 194.51 217.461 194.14 216.571 194.19C215.621 194.25 215.041 194.81 215.231 195.83C215.401 196.72 215.921 197.31 216.921 197.28Z" fill="white"/>
<path d="M209.212 185.34C209.362 186.53 209.052 187.84 207.822 187.78C207.102 187.75 207.262 186.25 207.412 185.35C208.012 185.35 208.612 185.35 209.212 185.34Z" fill="white"/>
<path d="M216.921 197.27C215.921 197.3 215.401 196.71 215.231 195.82C215.041 194.8 215.621 194.24 216.571 194.18C217.461 194.13 218.211 194.51 218.291 195.52C218.361 196.46 217.861 197.06 216.931 197.26L216.921 197.27Z" fill="black"/>
</svg>
