<svg width="309" height="309" viewBox="0 0 309 309" fill="none" xmlns="http://www.w3.org/2000/svg">
<g clip-path="url(#clip0_83_1087)">
<path d="M236.86 234.99H74.5703V77.1699H236.86V234.99ZM135.23 201.38C134.54 201.38 133.84 201.38 133.15 201.38C131.5 199.16 129.74 197.01 128.24 194.7C126.34 191.78 124.11 191.69 121.51 193.56C117 196.81 117.44 202.67 122.53 205.33C127.31 207.82 132.22 207.16 136.95 205.05C144.16 201.84 148.15 195.74 150.46 188.61C154.3 176.78 157.81 164.83 161.36 152.91C164.05 143.91 163.98 143.82 173.1 143.43C176.76 143.27 178.21 141.81 177.14 137.73H165.45C167.82 130.98 169.64 124.77 172.21 118.89C173.57 115.77 176.24 113.23 178.32 110.42C179.99 113.14 181.95 115.72 183.25 118.6C184.91 122.28 187.45 122.71 189.72 120.1C191.47 118.09 192.84 114.94 192.78 112.33C192.69 108.4 189.37 106.4 185.67 105.79C177.23 104.4 169.88 107.15 164.83 113.73C160.76 119.04 157.44 125.18 155.04 131.43C153.22 136.16 151.38 138.67 146.04 137.8C142.39 137.21 140.81 139.12 141.71 143.17C144.64 143.32 147.56 143.47 151.06 143.64C145.71 163.15 140.47 182.26 135.23 201.37V201.38Z" fill="white"/>
</g>
<defs>
<clipPath id="clip0_83_1087">
<rect width="163" height="158" fill="white" transform="translate(74 77)"/>
</clipPath>
</defs>
</svg>
