<svg width="309" height="309" viewBox="0 0 309 309" fill="none" xmlns="http://www.w3.org/2000/svg">
<g clip-path="url(#clip0_83_1087)">
<path d="M100.84 231.25V80.7695H210.43V124.54H145.35V138.77H210.34V184.3H145.05C145.05 197.09 145.05 209.33 145.05 221.58C145.05 233.07 145.58 231.15 135.55 231.22C124.12 231.31 112.69 231.24 100.83 231.24L100.84 231.25ZM192.27 162.7C193.89 158.15 191.48 157.959 188.4 157.969C168.81 158.029 149.21 157.839 129.62 158.109C124.69 158.179 123.51 156.61 123.62 151.89C123.93 138.28 123.9 124.659 123.63 111.049C123.55 106.719 124.7 105.329 129.17 105.379C148.93 105.609 168.69 105.419 188.44 105.529C192.14 105.549 193.86 104.729 192.21 100.899H119.24V209.31C120.84 209.23 122.24 209.15 123.73 209.07C123.73 195.6 123.73 182.5 123.73 169.399C123.73 164.939 125.897 162.703 130.23 162.689C150.81 162.689 171.38 162.689 192.27 162.689V162.7Z" fill="white"/>
</g>
<defs>
<clipPath id="clip0_83_1087">
<rect width="111" height="152" fill="white" transform="translate(100 80)"/>
</clipPath>
</defs>
</svg>
